<svg version="1" xmlns="http://www.w3.org/2000/svg" width="1608" height="1608" viewBox="0 0 1206.000000 1206.000000"><path d="M0 489.5V843h449v181H305v46h615v-46H774V843h432V136H0v353.5zm1180-2V814H32V161h1148v326.5z"/><path d="M407 523v183h102V340H407v183zm86-.5V689h-69V356h69v166.5zM627 406.5V419h417v-25H627v12.5zM286.2 552.7l.3 152.8 47.8.3 47.7.2V400h-96l.2 152.7zM627 481.5V496l206.8-.2 206.7-.3.3-14.3.3-14.2H627v14.5zM169 599v107h95V492h-95v107zM627 556v13h417.1l-.3-12.8-.3-12.7-208.2-.3L627 543v13zM627 632.5V645h417v-25H627v12.5z"/></svg>